<mxfile host="app.diagrams.net" agent="Mozilla/5.0 (Windows NT 10.0; Win64; x64) AppleWebKit/537.36 (KHTML, like Gecko) Chrome/130.0.0.0 Safari/537.36" version="24.7.17">
  <diagram name="Page-1" id="0783ab3e-0a74-02c8-0abd-f7b4e66b4bec">
    <mxGraphModel dx="1674" dy="778" grid="1" gridSize="10" guides="1" tooltips="1" connect="1" arrows="1" fold="1" page="1" pageScale="1" pageWidth="850" pageHeight="1100" background="none" math="0" shadow="0">
      <root>
        <mxCell id="0" />
        <mxCell id="1" parent="0" />
        <mxCell id="WlLkxpCcCO6lrYCXsfD7-1" value="START" style="rounded=0;whiteSpace=wrap;html=1;" vertex="1" parent="1">
          <mxGeometry x="190" y="90" width="470" height="60" as="geometry" />
        </mxCell>
        <mxCell id="WlLkxpCcCO6lrYCXsfD7-2" value="Invoer: Vraag een getal groter dan 3" style="rounded=0;whiteSpace=wrap;html=1;" vertex="1" parent="1">
          <mxGeometry x="190" y="150" width="470" height="60" as="geometry" />
        </mxCell>
        <mxCell id="WlLkxpCcCO6lrYCXsfD7-3" value="Is het getal &amp;gt; 3" style="rounded=0;whiteSpace=wrap;html=1;" vertex="1" parent="1">
          <mxGeometry x="190" y="210" width="470" height="60" as="geometry" />
        </mxCell>
        <mxCell id="WlLkxpCcCO6lrYCXsfD7-4" value="" style="endArrow=none;html=1;rounded=0;entryX=0;entryY=0;entryDx=0;entryDy=0;exitX=0.5;exitY=1;exitDx=0;exitDy=0;" edge="1" parent="1" source="WlLkxpCcCO6lrYCXsfD7-3" target="WlLkxpCcCO6lrYCXsfD7-3">
          <mxGeometry width="50" height="50" relative="1" as="geometry">
            <mxPoint x="400" y="430" as="sourcePoint" />
            <mxPoint x="450" y="380" as="targetPoint" />
          </mxGeometry>
        </mxCell>
        <mxCell id="WlLkxpCcCO6lrYCXsfD7-5" value="" style="endArrow=none;html=1;rounded=0;entryX=1;entryY=0;entryDx=0;entryDy=0;exitX=0.5;exitY=1;exitDx=0;exitDy=0;" edge="1" parent="1" source="WlLkxpCcCO6lrYCXsfD7-3" target="WlLkxpCcCO6lrYCXsfD7-3">
          <mxGeometry width="50" height="50" relative="1" as="geometry">
            <mxPoint x="435" y="280" as="sourcePoint" />
            <mxPoint x="200" y="220" as="targetPoint" />
          </mxGeometry>
        </mxCell>
        <mxCell id="WlLkxpCcCO6lrYCXsfD7-6" value="True" style="text;html=1;align=center;verticalAlign=middle;whiteSpace=wrap;rounded=0;" vertex="1" parent="1">
          <mxGeometry x="210" y="230" width="60" height="30" as="geometry" />
        </mxCell>
        <mxCell id="WlLkxpCcCO6lrYCXsfD7-7" value="False" style="text;html=1;align=center;verticalAlign=middle;whiteSpace=wrap;rounded=0;" vertex="1" parent="1">
          <mxGeometry x="590" y="230" width="60" height="30" as="geometry" />
        </mxCell>
        <mxCell id="WlLkxpCcCO6lrYCXsfD7-17" value="Ga naar volgende stap" style="rounded=0;whiteSpace=wrap;html=1;" vertex="1" parent="1">
          <mxGeometry x="190" y="270" width="240" height="120" as="geometry" />
        </mxCell>
        <mxCell id="WlLkxpCcCO6lrYCXsfD7-18" value="Ga terug naar invoer" style="rounded=0;whiteSpace=wrap;html=1;" vertex="1" parent="1">
          <mxGeometry x="430" y="270" width="230" height="120" as="geometry" />
        </mxCell>
        <mxCell id="WlLkxpCcCO6lrYCXsfD7-19" value="Controleer of het een priemgetel is" style="rounded=0;whiteSpace=wrap;html=1;" vertex="1" parent="1">
          <mxGeometry x="190" y="390" width="470" height="60" as="geometry" />
        </mxCell>
        <mxCell id="WlLkxpCcCO6lrYCXsfD7-20" value="Is het een priemgetal" style="rounded=0;whiteSpace=wrap;html=1;" vertex="1" parent="1">
          <mxGeometry x="190" y="450" width="470" height="60" as="geometry" />
        </mxCell>
        <mxCell id="WlLkxpCcCO6lrYCXsfD7-21" value="" style="endArrow=none;html=1;rounded=0;entryX=0;entryY=0;entryDx=0;entryDy=0;exitX=0.5;exitY=1;exitDx=0;exitDy=0;" edge="1" parent="1" source="WlLkxpCcCO6lrYCXsfD7-20" target="WlLkxpCcCO6lrYCXsfD7-20">
          <mxGeometry width="50" height="50" relative="1" as="geometry">
            <mxPoint x="450" y="450" as="sourcePoint" />
            <mxPoint x="500" y="400" as="targetPoint" />
          </mxGeometry>
        </mxCell>
        <mxCell id="WlLkxpCcCO6lrYCXsfD7-22" value="" style="endArrow=none;html=1;rounded=0;entryX=1;entryY=0;entryDx=0;entryDy=0;exitX=0.5;exitY=1;exitDx=0;exitDy=0;" edge="1" parent="1" source="WlLkxpCcCO6lrYCXsfD7-20" target="WlLkxpCcCO6lrYCXsfD7-20">
          <mxGeometry width="50" height="50" relative="1" as="geometry">
            <mxPoint x="450" y="450" as="sourcePoint" />
            <mxPoint x="500" y="400" as="targetPoint" />
          </mxGeometry>
        </mxCell>
        <mxCell id="WlLkxpCcCO6lrYCXsfD7-23" value="True" style="text;html=1;align=center;verticalAlign=middle;whiteSpace=wrap;rounded=0;" vertex="1" parent="1">
          <mxGeometry x="210" y="470" width="60" height="30" as="geometry" />
        </mxCell>
        <mxCell id="WlLkxpCcCO6lrYCXsfD7-24" value="False" style="text;html=1;align=center;verticalAlign=middle;whiteSpace=wrap;rounded=0;" vertex="1" parent="1">
          <mxGeometry x="580" y="470" width="60" height="30" as="geometry" />
        </mxCell>
        <mxCell id="WlLkxpCcCO6lrYCXsfD7-25" value="Het is een priemgetal" style="rounded=0;whiteSpace=wrap;html=1;" vertex="1" parent="1">
          <mxGeometry x="190" y="510" width="240" height="120" as="geometry" />
        </mxCell>
        <mxCell id="WlLkxpCcCO6lrYCXsfD7-26" value="Het is geen priemgetal" style="rounded=0;whiteSpace=wrap;html=1;" vertex="1" parent="1">
          <mxGeometry x="430" y="510" width="230" height="120" as="geometry" />
        </mxCell>
        <mxCell id="WlLkxpCcCO6lrYCXsfD7-28" value="Einde" style="rounded=0;whiteSpace=wrap;html=1;" vertex="1" parent="1">
          <mxGeometry x="190" y="630" width="470" height="60" as="geometry" />
        </mxCell>
      </root>
    </mxGraphModel>
  </diagram>
</mxfile>
